<svg width="150" height="150" viewBox="0 0 150 150" fill="none" xmlns="http://www.w3.org/2000/svg">
<path d="M29.7402 37.5789C28.6063 33.5368 26.9685 30.6316 24.8268 28.8632C22.685 26.9684 19.6614 25.9579 15.7559 25.8316L15 24.5053L16.3228 13.1368C18.0866 13.1368 21.2992 13.2 25.9606 13.3263C30.622 13.4526 35.3465 13.5158 40.1339 13.5158C45.9291 13.5158 52.2283 13.3263 59.0315 12.9474C65.8346 12.4421 70.2441 12.1263 72.2598 12L73.3937 13.5158L72.4488 25.0737C68.0394 25.4526 64.8268 25.8947 62.811 26.4C60.9213 26.7789 59.5984 27.4105 58.8425 28.2947C58.2126 29.1789 57.8976 30.5053 57.8976 32.2737C57.8976 35.1789 60.2913 47.0526 65.0787 67.8947C69.9921 88.7368 73.3307 102.884 75.0945 110.337H77.9291C80.8268 102.884 85.4882 88.6105 91.9134 67.5158C98.4646 46.2947 101.74 34.2947 101.74 31.5158C101.74 29.3684 100.984 27.8526 99.4724 26.9684C98.0866 26.0842 95.6299 25.6421 92.1024 25.6421H84.7323L83.7874 24.3158L85.1102 12.5684C86.874 12.6947 90.7165 12.8842 96.6378 13.1368C102.559 13.3895 108.039 13.5158 113.079 13.5158C118.118 13.5158 122.654 13.4526 126.685 13.3263C130.843 13.2 133.614 13.1368 135 13.1368L133.677 25.6421C130.654 26.1474 128.512 27.0316 127.252 28.2947C125.992 29.4316 124.732 31.8316 123.472 35.4947L88.7008 134.211L57.5197 138C55.6299 130.8 51.6614 115.958 45.6142 93.4737C39.5669 70.9895 34.2756 52.3579 29.7402 37.5789Z" fill="#AB61B7"/>
</svg>
